<svg xmlns="http://www.w3.org/2000/svg" viewBox="0 0 512 512" fill="#3B82F6">
  <path d="M352 144c0-28.7 23.3-52 52-52s52 23.3 52 52v48c0 28.7-23.3 52-52 52s-52-23.3-52-52v-48zm-32 48c0 44.2 35.8 80 80 80s80-35.8 80-80v-48c0-44.2-35.8-80-80-80s-80 35.8-80 80v48z"/>
  <path d="M80 80c-8.8 0-16 7.2-16 16v320c0 8.8 7.2 16 16 16h96c8.8 0 16-7.2 16-16V96c0-8.8-7.2-16-16-16H80zm-48 16c0-26.5 21.5-48 48-48h96c26.5 0 48 21.5 48 48v320c0 26.5-21.5 48-48 48H80c-26.5 0-48-21.5-48-48V96z"/>
  <path d="M224 144h96v64h-96z"/>
  <path d="M224 240h32v32h-32z"/>
  <path d="M320 192h32v16h-32z"/>
  <circle cx="368" cy="200" r="8"/>
</svg>